<svg width="174" height="189" viewBox="0 0 174 189" fill="none" xmlns="http://www.w3.org/2000/svg">
<g filter="url(#filter0_d_2_785)">
<g filter="url(#filter1_d_2_785)">
<g filter="url(#filter2_d_2_785)">
<rect x="45" y="30.0449" width="78.955" height="78.955" rx="4" fill="#FFB300"/>
</g>
<path fill-rule="evenodd" clip-rule="evenodd" d="M103.095 80.6135L100.801 78.3199C100.594 78.1146 100.622 77.1652 100.622 76.873V67.0036C100.622 60.3221 96.0501 54.4597 89.7495 52.3595V52.1759C89.7495 49.5191 87.5012 47.2649 84.8306 47.2649C82.1678 47.2649 79.9097 49.5191 79.9097 52.1759V52.3595C73.6091 54.4597 69.0396 60.3221 69.0396 67.0036V76.873C69.0396 77.1652 69.0652 78.1146 68.8599 78.3199L66.5663 80.6135C65.8557 81.3241 65.0898 82.6427 65.0898 83.8625C65.0898 85.4021 66.4854 86.6555 68.2007 86.6555H76.8383C77.6496 90.0881 80.7486 92.6522 84.4358 92.6522C88.123 92.6522 91.9128 90.175 92.7261 86.7424L101.46 86.6555C103.176 86.6555 104.569 85.4021 104.569 83.8625C104.569 82.6466 103.805 81.3261 103.095 80.6135ZM84.4358 89.1821C82.6889 89.1821 81.1809 88.1438 80.4979 86.6555H88.3717C87.6887 88.1438 86.1807 89.1821 84.4358 89.1821ZM90.7522 82.7946C90.4798 82.7275 91.0246 82.7275 90.7522 82.7946H78.909C78.6366 82.7275 79.1813 82.7275 78.909 82.7946H69.0396C69.1264 82.4551 69.0021 82.8302 69.0396 82.7946L71.3233 80.7694C72.178 79.9167 72.9873 78.081 72.9873 76.873V67.0036C72.9873 61.382 76.5186 56.6763 82.0553 55.3518C82.837 55.1643 83.3877 54.4675 83.3877 53.6642V52.1759C83.3877 51.4534 84.1062 51.2126 84.8306 51.2126C85.5747 51.2126 86.2695 51.4396 86.2695 52.1759V53.6642C86.2695 54.4675 86.8222 55.1643 87.6039 55.3518C93.1406 56.6763 96.6738 61.382 96.6738 67.0036V76.873C96.6738 78.081 97.4831 79.9167 98.3378 80.7714L100.629 83.0611C100.667 83.0986 100.586 82.7492 100.622 82.7946H90.7522Z" fill="white"/>
</g>
<path fill-rule="evenodd" clip-rule="evenodd" d="M121.055 54.44C130.565 54.44 138.275 46.7303 138.275 37.22C138.275 27.7097 130.565 20 121.055 20C111.545 20 103.835 27.7097 103.835 37.22C103.835 46.7303 111.545 54.44 121.055 54.44Z" fill="#FF7878"/>
<path d="M119.064 41.177H119.967C120.256 41.177 120.494 41.1282 120.682 41.0305C120.869 40.929 121.008 40.7883 121.098 40.6086C121.191 40.425 121.238 40.2122 121.238 39.97C121.238 39.7512 121.195 39.5579 121.109 39.3899C121.027 39.218 120.9 39.0852 120.729 38.9915C120.557 38.8938 120.34 38.845 120.078 38.845C119.871 38.845 119.68 38.886 119.504 38.968C119.328 39.05 119.188 39.1653 119.082 39.3137C118.977 39.4622 118.924 39.6418 118.924 39.8528H117.23C117.23 39.384 117.355 38.9758 117.605 38.6282C117.859 38.2805 118.199 38.009 118.625 37.8137C119.051 37.6184 119.52 37.5208 120.031 37.5208C120.609 37.5208 121.115 37.6145 121.549 37.802C121.982 37.9856 122.32 38.2571 122.562 38.6165C122.805 38.9758 122.926 39.4211 122.926 39.9524C122.926 40.2219 122.863 40.4836 122.738 40.7375C122.613 40.9875 122.434 41.2141 122.199 41.4172C121.969 41.6165 121.688 41.7766 121.355 41.8977C121.023 42.0149 120.65 42.0735 120.236 42.0735H119.064V41.177ZM119.064 42.4602V41.5872H120.236C120.701 41.5872 121.109 41.6399 121.461 41.7454C121.812 41.8508 122.107 42.0032 122.346 42.2024C122.584 42.3977 122.764 42.6301 122.885 42.8997C123.006 43.1653 123.066 43.4602 123.066 43.7844C123.066 44.1829 122.99 44.5383 122.838 44.8508C122.686 45.1594 122.471 45.4211 122.193 45.636C121.92 45.8508 121.6 46.0149 121.232 46.1282C120.865 46.2375 120.465 46.2922 120.031 46.2922C119.672 46.2922 119.318 46.2434 118.971 46.1458C118.627 46.0442 118.314 45.8938 118.033 45.6946C117.756 45.4915 117.533 45.2375 117.365 44.9329C117.201 44.6243 117.119 44.259 117.119 43.8372H118.812C118.812 44.0559 118.867 44.2512 118.977 44.4231C119.086 44.595 119.236 44.7297 119.428 44.8274C119.623 44.925 119.84 44.9739 120.078 44.9739C120.348 44.9739 120.578 44.925 120.77 44.8274C120.965 44.7258 121.113 44.5852 121.215 44.4055C121.32 44.2219 121.373 44.009 121.373 43.7668C121.373 43.4543 121.316 43.2043 121.203 43.0168C121.09 42.8254 120.928 42.6848 120.717 42.595C120.506 42.5051 120.256 42.4602 119.967 42.4602H119.064Z" fill="white"/>
</g>
<defs>
<filter id="filter0_d_2_785" x="10" y="0" width="163.275" height="159" filterUnits="userSpaceOnUse" color-interpolation-filters="sRGB">
<feFlood flood-opacity="0" result="BackgroundImageFix"/>
<feColorMatrix in="SourceAlpha" type="matrix" values="0 0 0 0 0 0 0 0 0 0 0 0 0 0 0 0 0 0 127 0" result="hardAlpha"/>
<feOffset dy="15"/>
<feGaussianBlur stdDeviation="17.5"/>
<feComposite in2="hardAlpha" operator="out"/>
<feColorMatrix type="matrix" values="0 0 0 0 0 0 0 0 0 0 0 0 0 0 0 0 0 0 0.25 0"/>
<feBlend mode="normal" in2="BackgroundImageFix" result="effect1_dropShadow_2_785"/>
<feBlend mode="normal" in="SourceGraphic" in2="effect1_dropShadow_2_785" result="shape"/>
</filter>
<filter id="filter1_d_2_785" x="0" y="20.0449" width="168.955" height="168.955" filterUnits="userSpaceOnUse" color-interpolation-filters="sRGB">
<feFlood flood-opacity="0" result="BackgroundImageFix"/>
<feColorMatrix in="SourceAlpha" type="matrix" values="0 0 0 0 0 0 0 0 0 0 0 0 0 0 0 0 0 0 127 0" result="hardAlpha"/>
<feOffset dy="35"/>
<feGaussianBlur stdDeviation="22.5"/>
<feColorMatrix type="matrix" values="0 0 0 0 0.190902 0 0 0 0 0.257471 0 0 0 0 0.305677 0 0 0 0.15 0"/>
<feBlend mode="normal" in2="BackgroundImageFix" result="effect1_dropShadow_2_785"/>
<feBlend mode="normal" in="SourceGraphic" in2="effect1_dropShadow_2_785" result="shape"/>
</filter>
<filter id="filter2_d_2_785" x="29" y="15.0449" width="112.955" height="112.955" filterUnits="userSpaceOnUse" color-interpolation-filters="sRGB">
<feFlood flood-opacity="0" result="BackgroundImageFix"/>
<feColorMatrix in="SourceAlpha" type="matrix" values="0 0 0 0 0 0 0 0 0 0 0 0 0 0 0 0 0 0 127 0" result="hardAlpha"/>
<feOffset dx="1" dy="2"/>
<feGaussianBlur stdDeviation="8.5"/>
<feColorMatrix type="matrix" values="0 0 0 0 0 0 0 0 0 0 0 0 0 0 0 0 0 0 0.07 0"/>
<feBlend mode="normal" in2="BackgroundImageFix" result="effect1_dropShadow_2_785"/>
<feBlend mode="normal" in="SourceGraphic" in2="effect1_dropShadow_2_785" result="shape"/>
</filter>
</defs>
</svg>
